STARTFONT 2.1
FONT -Victor Carbajo-NostalgiaFour-Medium-R-Normal--12-120-72-72-P-147-MacOS Roman-
SIZE 12 72 72
FONTBOUNDINGBOX 28 34 -3 -6
STARTPROPERTIES 41
FAMILY_NAME "NostalgiaFour"
DEFAULT_CHAR -1
FOUNDRY "Victor Carbajo"
COPYRIGHT "Copyright (c) 2002 Victor Carbajo. www.carbajo.net"
CODEPAGE "MacOS Roman"
TRADEMARK "NostalgiaFour is a trademark of www.carbajo.net"
CREATION_YEAR 2002
WEIGHT_NAME "Medium"
SLANT "R"
SETWIDTH_NAME "Normal"
SPACING "P"
RELATIVE_SETWIDTH 50
RELATIVE_WEIGHT 50
HI_VERSION 1
VENDOR "PYRS"
FONTNAME_REGISTRY "-"
CHARSET_REGISTRY "MacOS Roman"
BREAK_CHAR -1
PIXEL_SIZE 12
POINT_SIZE 120
FONT_ASCENT 28
FONT_DESCENT 6
RESOLUTION_X 72
RESOLUTION_Y 72
AVERAGE_WIDTH 147
MIN_SPACE 6
NORM_SPACE 8
MAX_SPACE 12
END_SPACE 8
SUPERSCRIPT_X 8
SUPERSCRIPT_Y 8
SUBSCRIPT_X 8
SUBSCRIPT_Y 8
UNDERLINE_POSITION 3
X_HEIGHT 16
AVG_CAPITAL_WIDTH 16
AVG_LOWERCASE_WIDTH 13
CAP_HEIGHT 20
SUPERSCRIPT_SIZE 7
FIGURE_WIDTH 14
SUBSCRIPT_SIZE 7
ENDPROPERTIES
CHARS 232
STARTCHAR .notdef
ENCODING 0
SWIDTH 1333 0
DWIDTH 16 0
BBX 0 0 0 0
BITMAP
ENDCHAR
STARTCHAR FL0009
ENCODING 9
SWIDTH 1333 0
DWIDTH 16 0
BBX 0 0 0 0
BITMAP
ENDCHAR
STARTCHAR FL000d
ENCODING 13
SWIDTH 1333 0
DWIDTH 16 0
BBX 0 0 0 0
BITMAP
ENDCHAR
STARTCHAR FL000e
ENCODING 14
SWIDTH 83 0
DWIDTH 1 0
BBX 0 0 0 0
BITMAP
ENDCHAR
STARTCHAR FL001b
ENCODING 27
SWIDTH 916 0
DWIDTH 11 0
BBX 9 18 1 0
BITMAP
8020
C03C
E022
F03C
F800
FC20
FE00
FF78
FF94
FF9C
FF22
FE5C
FC20
F854
F022
E024
C000
8028
ENDCHAR
STARTCHAR FL001c
ENCODING 28
SWIDTH 83 0
DWIDTH 1 0
BBX 0 0 0 0
BITMAP
ENDCHAR
STARTCHAR FL001e
ENCODING 30
SWIDTH 83 0
DWIDTH 1 0
BBX 0 0 0 0
BITMAP
ENDCHAR
STARTCHAR space
ENCODING 32
SWIDTH 666 0
DWIDTH 8 0
BBX 0 0 0 0
BITMAP
ENDCHAR
STARTCHAR exclam
ENCODING 33
SWIDTH 833 0
DWIDTH 10 0
BBX 4 25 3 -5
BITMAP
F3
FF
FB
F4
F3
FF
FC
FC
F3
F0
F3
F0
F3
F0
F3
F0
F7
F0
07
00
67
FE
F7
FF
60
ENDCHAR
STARTCHAR quotedbl
ENCODING 34
SWIDTH 1250 0
DWIDTH 15 0
BBX 11 8 2 12
BITMAP
F1FF
F1E4
F1E2
F1E4
F1E0
F1E0
F1E6
F1F4
ENDCHAR
STARTCHAR numbersign
ENCODING 35
SWIDTH 1500 0
DWIDTH 18 0
BBX 14 18 2 0
BITMAP
3CF0
3CF0
3CF0
3CF0
FFFE
FFFD
FFFD
FFFC
3CF0
3CF0
FFFC
FFFC
FFFC
FFFC
3CF3
3CF0
3CF0
3CF0
ENDCHAR
STARTCHAR dollar
ENCODING 36
SWIDTH 1166 0
DWIDTH 14 0
BBX 12 24 1 -2
BITMAP
0F00
0F0C
0F0F
0F0C
1FFC
7FF3
7FFF
FFFC
F000
F008
FF80
7FE0
7FE0
1FF0
00F0
00F0
FFFF
FFEC
FFE2
FF84
0F00
0F00
0F00
0F08
ENDCHAR
STARTCHAR percent
ENCODING 37
SWIDTH 1666 0
DWIDTH 20 0
BBX 16 20 2 0
BITMAP
781C
FC3C
CC3C
CC78
FC78
78F0
00F0
01E0
01E0
03C0
03C0
0780
0780
0F00
0F1E
1E3F
1E33
3C33
3C3F
381E
ENDCHAR
STARTCHAR ampersand
ENCODING 38
SWIDTH 1500 0
DWIDTH 18 0
BBX 14 22 2 0
BITMAP
0783
1FE0
1FE3
3FF0
3CF0
3CF0
3FF0
1FE1
1FE1
0FC1
1F02
7F01
7F9C
FFFC
F3FC
F1FB
F0F3
F1F0
FFF8
7FFC
7FBC
1E1C
ENDCHAR
STARTCHAR quotesingle
ENCODING 39
SWIDTH 666 0
DWIDTH 8 0
BBX 4 8 2 12
BITMAP
F3
FF
FC
FC
F3
F2
F7
FC
ENDCHAR
STARTCHAR parenleft
ENCODING 40
SWIDTH 1000 0
DWIDTH 12 0
BBX 8 26 2 -4
BITMAP
07
1F
3C
7C
78
78
F8
F0
F0
F0
F0
F0
F0
F0
F0
F0
F0
F0
F0
F8
78
78
7C
3C
1F
07
ENDCHAR
STARTCHAR parenright
ENCODING 41
SWIDTH 1000 0
DWIDTH 12 0
BBX 8 26 2 -4
BITMAP
E0
F8
3C
3E
1E
1E
1F
0F
0F
0F
0F
0F
0F
0F
0F
0F
0F
0F
0F
1F
1E
1E
3E
3C
F8
E0
ENDCHAR
STARTCHAR asterisk
ENCODING 42
SWIDTH 1666 0
DWIDTH 20 0
BBX 16 16 2 2
BITMAP
381C
3C3C
3E7C
1FF8
0FF0
07E0
FFFF
FFFF
FFFF
FFFF
07E0
0FF0
1FF8
3E7C
3C3C
381C
ENDCHAR
STARTCHAR plus
ENCODING 43
SWIDTH 1666 0
DWIDTH 20 0
BBX 16 16 2 2
BITMAP
03C0
03C0
03C0
03C0
03C0
03C0
FFFF
FFFF
FFFF
FFFF
03C0
03C0
03C0
03C0
03C0
03C0
ENDCHAR
STARTCHAR comma
ENCODING 44
SWIDTH 666 0
DWIDTH 8 0
BBX 6 10 0 -4
BITMAP
1B
3C
3E
3C
3F
3B
79
F0
E0
80
ENDCHAR
STARTCHAR hyphen
ENCODING 45
SWIDTH 1333 0
DWIDTH 16 0
BBX 12 4 2 8
BITMAP
FFF0
FFF4
FFF2
FFFC
ENDCHAR
STARTCHAR period
ENCODING 46
SWIDTH 666 0
DWIDTH 8 0
BBX 4 6 2 0
BITMAP
63
F0
FA
F4
F3
6E
ENDCHAR
STARTCHAR slash
ENCODING 47
SWIDTH 1250 0
DWIDTH 15 0
BBX 13 20 1 0
BITMAP
0078
007C
00F7
00F4
01E0
01E0
03C0
03C0
0780
0780
0F00
0F07
1E01
1E01
3C04
3C07
7800
7800
F005
F001
ENDCHAR
STARTCHAR zero
ENCODING 48
SWIDTH 1166 0
DWIDTH 14 0
BBX 12 20 1 0
BITMAP
1F80
7FE4
7FEF
FFF4
F0F0
F0F0
F0F0
F0F8
F0F2
F0F1
F0FA
F0F4
F0F1
F0F0
F0FC
F0F8
FFFF
7FE8
7FE5
1F88
ENDCHAR
STARTCHAR one
ENCODING 49
SWIDTH 1166 0
DWIDTH 14 0
BBX 12 20 1 0
BITMAP
0F04
1F0C
3F0F
7F0C
FF00
FF0C
EF0E
CF04
0F00
0F00
0F00
0F08
0F02
0F04
0F00
0F0C
FFF0
FFF0
FFF5
FFF1
ENDCHAR
STARTCHAR two
ENCODING 50
SWIDTH 1166 0
DWIDTH 14 0
BBX 12 20 1 0
BITMAP
1F80
7FEC
7FE0
FFF4
F0F0
F0F8
00F0
01F8
03F0
07E0
0FC0
1F88
3F02
7E01
FC0E
F804
FFF1
FFF0
FFF0
FFF5
ENDCHAR
STARTCHAR three
ENCODING 51
SWIDTH 1166 0
DWIDTH 14 0
BBX 12 20 1 0
BITMAP
FFF0
FFFC
FFF0
FFFC
03C9
07C5
0F00
0F0C
0F00
0F88
07C0
03E0
01E0
00F4
F0F2
F0F4
FFF0
7FE8
7FE0
1F88
ENDCHAR
STARTCHAR four
ENCODING 52
SWIDTH 1166 0
DWIDTH 14 0
BBX 12 20 1 0
BITMAP
03C0
07C4
0FCF
1FC4
3FC0
3FCF
7BC5
7BC1
F3C0
F3C8
F3CF
F3C0
FFF0
FFF0
FFF0
FFF0
03C0
03CC
03C0
03C4
ENDCHAR
STARTCHAR five
ENCODING 53
SWIDTH 1166 0
DWIDTH 14 0
BBX 12 20 1 0
BITMAP
FFF0
FFF4
FFFF
FFFC
F000
F004
FF80
FFE4
FFE0
FFF0
00F0
00F8
00F0
00F0
F0F0
F0F4
FFF1
7FE1
7FE8
1F84
ENDCHAR
STARTCHAR six
ENCODING 54
SWIDTH 1166 0
DWIDTH 14 0
BBX 12 20 1 0
BITMAP
07C0
1FC4
3FC0
7FC4
7C00
F80C
F00F
F00C
FF80
FFE0
FFE0
FFF0
F0F5
F0F9
F0FF
F0FF
FFF0
7FE0
7FE0
1F88
ENDCHAR
STARTCHAR seven
ENCODING 55
SWIDTH 1166 0
DWIDTH 14 0
BBX 12 20 1 0
BITMAP
FFF0
FFFC
FFFF
FFFC
00F0
00F8
01E0
01E8
03C0
03C0
0780
0788
0F02
0F01
1E0A
1E04
3C01
3C00
3C0C
3C08
ENDCHAR
STARTCHAR eight
ENCODING 56
SWIDTH 1166 0
DWIDTH 14 0
BBX 12 20 1 0
BITMAP
1F80
7FEC
7FEF
FFF4
F0FF
F0F2
F0FF
F0FC
7FE0
3FC8
3FC0
7FE8
F0F0
F0F0
F0F0
F0F8
FFF2
7FE1
7FEA
1F84
ENDCHAR
STARTCHAR nine
ENCODING 57
SWIDTH 1166 0
DWIDTH 14 0
BBX 12 20 1 0
BITMAP
1F80
7FEC
7FE0
FFFC
F0F0
F0F8
F0F4
F0FC
FFF0
7FF0
7FF0
1FF0
00F9
00F8
01F0
03EC
3FE0
3FC0
3F80
3E08
ENDCHAR
STARTCHAR colon
ENCODING 58
SWIDTH 666 0
DWIDTH 8 0
BBX 4 16 2 0
BITMAP
63
F2
F8
F4
F3
6F
09
04
03
00
63
F0
F3
F0
F3
60
ENDCHAR
STARTCHAR semicolon
ENCODING 59
SWIDTH 666 0
DWIDTH 8 0
BBX 6 20 0 -4
BITMAP
1B
3E
3C
3C
3F
1B
00
00
03
00
1B
3C
3F
3C
3F
38
78
F0
E0
80
ENDCHAR
STARTCHAR less
ENCODING 60
SWIDTH 1166 0
DWIDTH 14 0
BBX 12 14 1 2
BITMAP
03F2
07E4
0FCE
1F84
3F00
7E00
FC00
FC00
7E00
3F00
1F80
0FC0
07E0
03F0
ENDCHAR
STARTCHAR equal
ENCODING 61
SWIDTH 1500 0
DWIDTH 18 0
BBX 14 12 2 4
BITMAP
FFFF
FFFC
FFFC
FFFC
0000
0000
0000
0000
FFFC
FFFC
FFFC
FFFC
ENDCHAR
STARTCHAR greater
ENCODING 62
SWIDTH 1166 0
DWIDTH 14 0
BBX 12 14 1 2
BITMAP
FC0F
7E0C
3F00
1F84
0FC0
07EC
03FF
03F4
07E0
0FC0
1F80
3F07
7E00
FC00
ENDCHAR
STARTCHAR question
ENCODING 63
SWIDTH 1166 0
DWIDTH 14 0
BBX 12 23 1 -3
BITMAP
1F84
7FEC
7FE0
FFFC
F0F0
F0F0
F0F0
F0F0
01E0
03EC
07C0
0784
0F00
0F00
0F00
0F00
0000
0008
0600
0F00
0F00
0F0C
0600
ENDCHAR
STARTCHAR at
ENCODING 64
SWIDTH 1333 0
DWIDTH 16 0
BBX 14 20 0 0
BITMAP
0782
1FE0
3FF2
7FF8
7C38
F81C
F0CC
F1EF
F33C
F33C
F33C
F338
F1F0
F0E0
F803
7C00
7FFC
3FFC
1FF8
07E0
ENDCHAR
STARTCHAR A
ENCODING 65
SWIDTH 1333 0
DWIDTH 16 0
BBX 14 20 1 0
BITMAP
1FE2
7FF8
7FFB
FFFC
F03C
F03C
F03F
F03F
FFFC
FFFC
FFFC
FFFC
F03D
F03F
F03F
F03C
F03C
F03C
F03C
F03C
ENDCHAR
STARTCHAR B
ENCODING 66
SWIDTH 1333 0
DWIDTH 16 0
BBX 14 20 1 0
BITMAP
FFE3
FFF8
FFF8
FFFC
F03C
F03C
F03C
F03C
FFFA
FFF1
FFF2
FFF8
F03D
F03C
F03C
F03C
FFFF
FFF8
FFFA
FFE1
ENDCHAR
STARTCHAR C
ENCODING 67
SWIDTH 1333 0
DWIDTH 16 0
BBX 14 20 1 0
BITMAP
1FE3
7FF8
7FF8
FFFC
F03C
F03C
F000
F003
F000
F000
F000
F000
F003
F003
F03C
F03C
FFFC
7FF8
7FF8
1FE0
ENDCHAR
STARTCHAR D
ENCODING 68
SWIDTH 1333 0
DWIDTH 16 0
BBX 14 20 1 0
BITMAP
FF83
FFE0
FFF2
FFF8
F0F8
F07F
F03C
F03D
F03C
F03C
F03D
F03C
F03C
F03C
F07C
F0F8
FFF8
FFF0
FFE0
FF80
ENDCHAR
STARTCHAR E
ENCODING 69
SWIDTH 1333 0
DWIDTH 16 0
BBX 14 20 1 0
BITMAP
FFFE
FFFC
FFFC
FFFC
F000
F000
F000
F000
FFF2
FFF0
FFF0
FFF0
F000
F000
F000
F000
FFFC
FFFC
FFFC
FFFC
ENDCHAR
STARTCHAR F
ENCODING 70
SWIDTH 1333 0
DWIDTH 16 0
BBX 14 20 1 0
BITMAP
FFFE
FFFC
FFFC
FFFC
F000
F000
F000
F000
FFF0
FFF0
FFF3
FFF0
F000
F000
F000
F000
F000
F000
F000
F000
ENDCHAR
STARTCHAR G
ENCODING 71
SWIDTH 1333 0
DWIDTH 16 0
BBX 14 20 1 0
BITMAP
1FFE
7FFC
7FFC
FFFC
F000
F000
F000
F000
F0FC
F0FC
F0FC
F0FC
F03E
F03D
F03E
F03C
FFFD
7FF8
7FF8
1FE1
ENDCHAR
STARTCHAR H
ENCODING 72
SWIDTH 1333 0
DWIDTH 16 0
BBX 14 20 1 0
BITMAP
F03F
F03C
F03C
F03C
F03C
F03C
F03C
F03C
FFFC
FFFC
FFFC
FFFC
F03C
F03C
F03C
F03C
F03F
F03C
F03F
F03C
ENDCHAR
STARTCHAR I
ENCODING 73
SWIDTH 833 0
DWIDTH 10 0
BBX 8 20 1 0
BITMAP
FF
FF
FF
FF
3C
3C
3C
3C
3C
3C
3C
3C
3C
3C
3C
3C
FF
FF
FF
FF
ENDCHAR
STARTCHAR J
ENCODING 74
SWIDTH 1333 0
DWIDTH 16 0
BBX 14 20 1 0
BITMAP
003C
003C
003E
003C
003F
003C
003D
003F
003C
003C
003C
003C
F03C
F03C
F03C
F03C
FFFE
7FF9
7FFA
1FE0
ENDCHAR
STARTCHAR K
ENCODING 75
SWIDTH 1333 0
DWIDTH 16 0
BBX 14 20 1 0
BITMAP
F03C
F03C
F07B
F078
F0F3
F0F0
F1E2
F1E0
FFC0
FFC0
FFC2
FFC0
F1E0
F1E0
F0F0
F0F0
F07A
F078
F03F
F03C
ENDCHAR
STARTCHAR L
ENCODING 76
SWIDTH 1333 0
DWIDTH 16 0
BBX 14 20 1 0
BITMAP
F000
F000
F003
F000
F000
F000
F000
F003
F000
F000
F000
F000
F003
F003
F000
F000
FFFC
FFFC
FFFC
FFFC
ENDCHAR
STARTCHAR M
ENCODING 77
SWIDTH 1666 0
DWIDTH 20 0
BBX 18 20 1 0
BITMAP
F003FD
F807E0
FC0FC0
FE1FC1
FF3FC0
FFFFC1
FFFFC0
F3F3C1
F1E3F3
F1E3CC
F0C3C0
F003F8
F003C0
F003C0
F003C0
F003E8
F003C0
F003CA
F003C0
F003C0
ENDCHAR
STARTCHAR N
ENCODING 78
SWIDTH 1500 0
DWIDTH 18 0
BBX 16 20 1 0
BITMAP
F00F
F80F
FC0F
FE0F
FF0F
FF8F
FFCF
F3EF
F1FF
F0FF
F07F
F03F
F01F
F01F
F00F
F00F
F00F
F00F
F00F
F00F
ENDCHAR
STARTCHAR O
ENCODING 79
SWIDTH 1333 0
DWIDTH 16 0
BBX 14 20 1 0
BITMAP
1FE0
7FF8
7FF8
FFFC
F03C
F03C
F03F
F03E
F03F
F03C
F03C
F03F
F03C
F03C
F03C
F03C
FFFC
7FF8
7FF8
1FE3
ENDCHAR
STARTCHAR P
ENCODING 80
SWIDTH 1333 0
DWIDTH 16 0
BBX 14 20 1 0
BITMAP
FFE2
FFF8
FFF8
FFFC
F03C
F03C
F03C
F03D
FFFC
FFF8
FFF9
FFE0
F000
F000
F000
F000
F003
F003
F000
F000
ENDCHAR
STARTCHAR Q
ENCODING 81
SWIDTH 1333 0
DWIDTH 16 0
BBX 14 26 1 -6
BITMAP
1FE0
7FF8
7FFB
FFFC
F03D
F03D
F03D
F03C
F03D
F03E
F03F
F03F
F03F
F03C
F03C
F03C
FFFC
7FF8
7FF8
1FE0
03C0
03C0
03FF
01FC
01FC
007C
ENDCHAR
STARTCHAR R
ENCODING 82
SWIDTH 1333 0
DWIDTH 16 0
BBX 14 20 1 0
BITMAP
FFE0
FFF8
FFFA
FFFC
F03C
F03C
F03C
F03C
FFFA
FFF9
FFF2
FFE0
F1F1
F0F8
F078
F07C
F03F
F03C
F03F
F03C
ENDCHAR
STARTCHAR S
ENCODING 83
SWIDTH 1333 0
DWIDTH 16 0
BBX 14 20 1 0
BITMAP
1FFC
7FFC
7FFF
FFFC
F002
F001
F001
F000
FFE1
7FF8
7FFB
1FFD
003F
003C
003E
003C
FFFC
FFF8
FFF8
FFE0
ENDCHAR
STARTCHAR T
ENCODING 84
SWIDTH 1500 0
DWIDTH 18 0
BBX 16 20 1 0
BITMAP
FFFF
FFFF
FFFF
FFFF
03C0
03C0
03C0
03C0
03C0
03C0
03C0
03C0
03C0
03C0
03C0
03C0
03C0
03C0
03C0
03C0
ENDCHAR
STARTCHAR U
ENCODING 85
SWIDTH 1333 0
DWIDTH 16 0
BBX 14 20 1 0
BITMAP
F03F
F03C
F03C
F03C
F03E
F03D
F03E
F03C
F03D
F03C
F03C
F03C
F03C
F03C
F03F
F03C
FFFC
7FF8
7FF8
1FE0
ENDCHAR
STARTCHAR V
ENCODING 86
SWIDTH 1500 0
DWIDTH 18 0
BBX 16 20 1 0
BITMAP
F00F
F00F
F00F
F00F
F00F
F00F
F00F
781E
781E
781E
781E
3C3C
3C3C
3C3C
1E78
1E78
0FF0
0FF0
07E0
03C0
ENDCHAR
STARTCHAR W
ENCODING 87
SWIDTH 1666 0
DWIDTH 20 0
BBX 18 20 1 0
BITMAP
F003D8
F003E0
F003C0
F003F0
F003C2
F003E0
F003D3
F003CC
F003C0
F0C3C8
F1E3C0
F1E3C0
F3F3C3
FFFFE2
FFFFC0
FF3FFC
FE1FC2
FC0FC0
F807C0
F003C0
ENDCHAR
STARTCHAR X
ENCODING 88
SWIDTH 1500 0
DWIDTH 18 0
BBX 16 20 1 0
BITMAP
E007
F00F
F81F
FC3F
7E7E
3FFC
1FF8
0FF0
07E0
03C0
03C0
07E0
0FF0
1FF8
3FFC
7E7E
FC3F
F81F
F00F
E007
ENDCHAR
STARTCHAR Y
ENCODING 89
SWIDTH 1500 0
DWIDTH 18 0
BBX 16 20 1 0
BITMAP
F00F
F00F
F00F
F00F
F81F
781E
7C3E
3E7C
1FF8
0FF0
07E0
03C0
03C0
03C0
03C0
03C0
03C0
03C0
03C0
03C0
ENDCHAR
STARTCHAR Z
ENCODING 90
SWIDTH 1500 0
DWIDTH 18 0
BBX 16 20 1 0
BITMAP
FFFF
FFFF
FFFF
FFFF
001F
003E
007C
00F8
01F0
03E0
07C0
0F80
1F00
3E00
7C00
F800
FFFF
FFFF
FFFF
FFFF
ENDCHAR
STARTCHAR bracketleft
ENCODING 91
SWIDTH 1000 0
DWIDTH 12 0
BBX 8 26 2 -4
BITMAP
FF
FF
FF
FF
F0
F0
F0
F0
F0
F0
F0
F0
F0
F0
F0
F0
F0
F0
F0
F0
F0
F0
FF
FF
FF
FF
ENDCHAR
STARTCHAR backslash
ENCODING 92
SWIDTH 1250 0
DWIDTH 15 0
BBX 13 20 1 0
BITMAP
F000
F004
7807
7804
3C00
3C00
1E00
1E00
0F00
0F00
0780
0780
03C0
03C0
01E0
01E0
00F0
00F0
0078
007A
ENDCHAR
STARTCHAR bracketright
ENCODING 93
SWIDTH 1000 0
DWIDTH 12 0
BBX 8 26 2 -4
BITMAP
FF
FF
FF
FF
0F
0F
0F
0F
0F
0F
0F
0F
0F
0F
0F
0F
0F
0F
0F
0F
0F
0F
FF
FF
FF
FF
ENDCHAR
STARTCHAR asciicircum
ENCODING 94
SWIDTH 1166 0
DWIDTH 14 0
BBX 10 12 2 12
BITMAP
0C22
0C2C
1E22
1E24
3F38
3F30
7FA0
7380
F3C0
E1C0
E1C0
E1C0
ENDCHAR
STARTCHAR underscore
ENCODING 95
SWIDTH 1666 0
DWIDTH 20 0
BBX 18 4 0 -4
BITMAP
FFFFDA
FFFFDF
FFFFC0
FFFFD0
ENDCHAR
STARTCHAR grave
ENCODING 96
SWIDTH 833 0
DWIDTH 10 0
BBX 6 10 2 12
BITMAP
C3
E2
F2
F8
FF
FC
7D
3C
1C
0C
ENDCHAR
STARTCHAR a
ENCODING 97
SWIDTH 1166 0
DWIDTH 14 0
BBX 12 16 1 0
BITMAP
3F80
3FEC
3FEF
3FFC
00F0
00F0
1FF0
7FF0
7FF0
FFF0
F0F0
F0F0
FFF0
7FF0
7FF0
1FF0
ENDCHAR
STARTCHAR b
ENCODING 98
SWIDTH 1166 0
DWIDTH 14 0
BBX 12 22 1 0
BITMAP
F000
F00C
F002
F004
F00F
F00F
FF8F
FFEF
FFE0
FFF8
F0F0
F0F0
F0F0
F0F4
F0FF
F0FC
F0F0
F0F4
FFFF
FFE4
FFE0
FF80
ENDCHAR
STARTCHAR c
ENCODING 99
SWIDTH 1166 0
DWIDTH 14 0
BBX 12 16 1 0
BITMAP
1F82
7FEC
7FEF
FFFC
F0F0
F0F0
F000
F000
F000
F000
F0F0
F0F0
FFF0
7FE0
7FE0
1F80
ENDCHAR
STARTCHAR d
ENCODING 100
SWIDTH 1166 0
DWIDTH 14 0
BBX 12 22 1 0
BITMAP
00F2
00FC
00F0
00FC
00F0
00F8
1FF0
7FF8
7FF0
FFFC
F0F0
F0F4
F0F0
F0F0
F0F0
F0F0
F0F0
F0F8
FFF0
7FF8
7FF0
1FF0
ENDCHAR
STARTCHAR e
ENCODING 101
SWIDTH 1166 0
DWIDTH 14 0
BBX 12 16 1 0
BITMAP
1F80
7FE4
7FEF
FFF4
F0F0
F0F0
FFF7
FFE7
FFE2
FF88
F00C
F001
FFF0
7FF0
7FF0
1FF0
ENDCHAR
STARTCHAR f
ENCODING 102
SWIDTH 916 0
DWIDTH 11 0
BBX 10 22 1 0
BITMAP
07E0
1FE4
1FE2
3FDC
3C02
3C01
FF0A
FF16
FF01
FF3A
3C0C
3C28
3C20
3C18
3C31
3C1C
3C00
3C20
3C00
3C10
3C00
3C30
ENDCHAR
STARTCHAR g
ENCODING 103
SWIDTH 1166 0
DWIDTH 14 0
BBX 12 22 1 -6
BITMAP
1FF2
7FF4
7FFF
FFF4
F0FF
F0FF
F0FF
F0FF
F0FF
F0FF
F0FF
F0FF
FFFF
7FFF
7FFF
1FFF
00FF
00FE
FFFE
FFE8
FFE0
FF80
ENDCHAR
STARTCHAR h
ENCODING 104
SWIDTH 1166 0
DWIDTH 14 0
BBX 12 22 1 0
BITMAP
F002
F004
F000
F004
F000
F004
FF8F
FFEC
FFEC
FFFC
F0F0
F0F0
F0F0
F0F8
F0F0
F0F0
F0F0
F0F4
F0F2
F0F4
F0F0
F0F0
ENDCHAR
STARTCHAR i
ENCODING 105
SWIDTH 833 0
DWIDTH 10 0
BBX 8 23 1 0
BITMAP
18
3C
3C
3C
18
00
00
FC
FC
FC
FC
3C
3C
3C
3C
3C
3C
3C
3C
FF
FF
FF
FF
ENDCHAR
STARTCHAR j
ENCODING 106
SWIDTH 666 0
DWIDTH 8 0
BBX 10 29 -3 -6
BITMAP
01A0
03DC
03E2
03D4
0182
0001
000A
0FD6
0FC1
0FFA
0FCC
03E8
03E0
03F8
03F9
03C8
03C0
03C0
03C0
03D0
03E1
03C0
03DF
03FC
03C0
FFD0
FF80
FFB8
FE00
ENDCHAR
STARTCHAR k
ENCODING 107
SWIDTH 1166 0
DWIDTH 14 0
BBX 12 22 1 0
BITMAP
F002
F00C
F00F
F00C
F000
F000
F070
F0F0
F1F0
F3E0
F7C0
FF80
FF00
FF00
FF80
F7C0
F3E0
F1E0
F1F0
F0F0
F0F0
F0F0
ENDCHAR
STARTCHAR l
ENCODING 108
SWIDTH 583 0
DWIDTH 7 0
BBX 6 22 0 0
BITMAP
FF
FE
FF
FC
3F
3C
3D
3C
3C
3C
3F
3C
3C
3C
3C
3C
3F
3C
3F
3C
3F
3C
ENDCHAR
STARTCHAR m
ENCODING 109
SWIDTH 1500 0
DWIDTH 18 0
BBX 16 16 1 0
BITMAP
1C38
7E7E
7FFE
FFFF
FFFF
F3CF
F3CF
F3CF
F3CF
F3CF
F3CF
F3CF
F00F
F00F
F00F
F00F
ENDCHAR
STARTCHAR n
ENCODING 110
SWIDTH 1166 0
DWIDTH 14 0
BBX 12 16 1 0
BITMAP
1F80
7FE4
7FE2
FFFC
F0F2
F0F1
F0FA
F0FA
F0F1
F0FA
F0FC
F0F8
F0F0
F0F8
F0F7
F0F0
ENDCHAR
STARTCHAR o
ENCODING 111
SWIDTH 1166 0
DWIDTH 14 0
BBX 12 16 1 0
BITMAP
1F82
7FE4
7FEF
FFF4
F0F2
F0F1
F0FA
F0F7
F0F1
F0F0
F0FC
F0F8
FFF2
7FE0
7FE0
1F80
ENDCHAR
STARTCHAR p
ENCODING 112
SWIDTH 1166 0
DWIDTH 14 0
BBX 12 22 1 -6
BITMAP
FF82
FFE4
FFE0
FFF4
F0F1
F0F1
F0F4
F0FE
F0F2
F0FA
F0F8
F0FB
FFF2
FFE8
FFEC
FF88
F000
F008
F000
F000
F000
F000
ENDCHAR
STARTCHAR q
ENCODING 113
SWIDTH 1166 0
DWIDTH 14 0
BBX 12 22 1 -6
BITMAP
1FF0
7FFC
7FFF
FFFC
F0F0
F0F4
F0FF
F0F4
F0F0
F0F0
F0F0
F0F0
FFF0
7FF8
7FF0
1FF8
00F0
00F4
00F2
00F4
00F0
00F0
ENDCHAR
STARTCHAR r
ENCODING 114
SWIDTH 1166 0
DWIDTH 14 0
BBX 12 16 1 0
BITMAP
FF80
FFEC
FFE2
FFF4
F0F0
F0F0
F000
F000
F000
F000
F000
F000
F000
F008
F000
F000
ENDCHAR
STARTCHAR s
ENCODING 115
SWIDTH 1166 0
DWIDTH 14 0
BBX 12 16 1 0
BITMAP
1FF2
7FFC
7FFF
FFFC
F000
F000
FF80
7FE8
7FE2
1FFC
00FF
00F4
FFF1
FFE1
FFE7
FF88
ENDCHAR
STARTCHAR t
ENCODING 116
SWIDTH 1000 0
DWIDTH 12 0
BBX 10 20 1 0
BITMAP
3C1F
3C2C
3C22
3C3C
FF00
FF00
FF00
FF28
3C00
3C00
3C00
3C34
3C02
3C01
3C0A
3C1A
3FC1
1FC0
1FCC
07E8
ENDCHAR
STARTCHAR u
ENCODING 117
SWIDTH 1166 0
DWIDTH 14 0
BBX 12 16 1 0
BITMAP
F0F0
F0FC
F0FF
F0FC
F0F0
F0F0
F0F0
F0F0
F0F0
F0F0
F0F0
F0F8
FFF0
7FF0
7FF0
1FF0
ENDCHAR
STARTCHAR v
ENCODING 118
SWIDTH 1166 0
DWIDTH 14 0
BBX 12 16 1 0
BITMAP
F0F0
F0FC
F0FF
F0FC
F0F2
F0F3
F0F2
79E7
79E0
79E8
3FC0
3FC0
1F80
1F8C
0F00
0F0C
ENDCHAR
STARTCHAR w
ENCODING 119
SWIDTH 1500 0
DWIDTH 18 0
BBX 16 16 1 0
BITMAP
F00F
F00F
F00F
F00F
F3CF
F3CF
F3CF
F3CF
F3CF
F3CF
F3CF
FFFF
FFFF
7FFE
7E7E
1C38
ENDCHAR
STARTCHAR x
ENCODING 120
SWIDTH 1166 0
DWIDTH 14 0
BBX 12 16 1 0
BITMAP
E07F
F0FC
F9F2
FFFC
7FE0
3FC0
1F80
0F00
0F00
1F80
3FC0
7FE0
FFF0
F9F8
F0F0
E070
ENDCHAR
STARTCHAR y
ENCODING 121
SWIDTH 1166 0
DWIDTH 14 0
BBX 12 22 1 -6
BITMAP
F0FF
F0F4
F0FF
F0FC
F0F0
F0F0
F0F0
F0F0
F0F0
F0F0
F0F0
F0F0
FFF0
7FF8
7FF0
1FF8
00FF
00FC
FFF0
FFEC
FFE0
FF80
ENDCHAR
STARTCHAR z
ENCODING 122
SWIDTH 1166 0
DWIDTH 14 0
BBX 12 16 1 0
BITMAP
FFFF
FFF4
FFFF
FFFC
01F0
03E0
07C0
0F80
1F00
3E00
7C00
F800
FFF0
FFF8
FFF0
FFF8
ENDCHAR
STARTCHAR braceleft
ENCODING 123
SWIDTH 1333 0
DWIDTH 16 0
BBX 14 28 1 -4
BITMAP
007C
01FC
01C3
03C0
03C3
03C2
03C2
03C0
03C0
03C0
07C0
0F80
FF00
FF00
0F80
07C0
03C0
03C0
03C2
03C0
03C3
03C0
03C2
03C0
03C0
01C0
01FC
007C
ENDCHAR
STARTCHAR bar
ENCODING 124
SWIDTH 833 0
DWIDTH 10 0
BBX 4 30 3 -6
BITMAP
F3
F0
F7
F4
F3
FF
FD
FC
FF
F0
F9
F0
F0
F0
F0
F0
F0
F0
F0
F0
F0
F0
F0
F0
F0
F0
F0
F8
F0
F0
ENDCHAR
STARTCHAR braceright
ENCODING 125
SWIDTH 1333 0
DWIDTH 16 0
BBX 14 28 1 -4
BITMAP
F800
FE00
0E03
0F00
0F00
0F00
0F00
0F00
0F00
0F00
0F80
07C0
03FC
03FC
07C0
0F80
0F00
0F00
0F03
0F00
0F00
0F00
0F00
0F00
0F00
0E00
FE03
F800
ENDCHAR
STARTCHAR asciitilde
ENCODING 126
SWIDTH 1166 0
DWIDTH 14 0
BBX 12 6 1 7
BITMAP
3C30
7E3C
FF34
CFFC
C7E0
C3C0
ENDCHAR
STARTCHAR FL007f
ENCODING 127
SWIDTH 1333 0
DWIDTH 16 0
BBX 0 0 0 0
BITMAP
ENDCHAR
STARTCHAR Adieresis
ENCODING 196
SWIDTH 1333 0
DWIDTH 16 0
BBX 14 27 1 0
BITMAP
1862
3CF0
3CF0
3CF0
1860
0002
0002
1FE3
7FFB
7FFB
FFFF
F03F
F03F
F03F
F03F
FFFF
FFFF
FFFF
FFFF
F03F
F03C
F03C
F03C
F03C
F03C
F03C
F03C
ENDCHAR
STARTCHAR Aring
ENCODING 197
SWIDTH 1333 0
DWIDTH 16 0
BBX 14 28 1 0
BITMAP
0783
1FE0
3873
3870
1FE0
0780
0003
0000
1FE0
7FF8
7FF8
FFFC
F03C
F03C
F03F
F03C
FFFC
FFFC
FFFC
FFFC
F03F
F03C
F03C
F03C
F03C
F03C
F03C
F03C
ENDCHAR
STARTCHAR Ccedilla
ENCODING 199
SWIDTH 1333 0
DWIDTH 16 0
BBX 14 26 1 -6
BITMAP
1FE0
7FF8
7FF8
FFFC
F03C
F03C
F000
F000
F000
F000
F000
F000
F000
F000
F03C
F03C
FFFC
7FF8
7FF8
1FE0
03C0
03C0
3FC0
3F80
3F80
3E00
ENDCHAR
STARTCHAR Eacute
ENCODING 201
SWIDTH 1333 0
DWIDTH 16 0
BBX 14 28 1 0
BITMAP
00F0
01F0
03E3
07C0
0F80
0F00
0000
0000
FFFE
FFFE
FFFC
FFFC
F000
F000
F000
F000
FFF0
FFF0
FFF0
FFF0
F000
F000
F000
F000
FFFC
FFFC
FFFC
FFFC
ENDCHAR
STARTCHAR Ntilde
ENCODING 209
SWIDTH 1500 0
DWIDTH 18 0
BBX 16 28 1 0
BITMAP
0F0C
1F8C
3FCC
33FC
31F8
30F0
0000
0000
F00F
F80F
FC0F
FE0F
FF0F
FF8F
FFCF
F3EF
F1FF
F0FF
F07F
F03F
F01F
F01F
F00F
F00F
F00F
F00F
F00F
F00F
ENDCHAR
STARTCHAR Odieresis
ENCODING 214
SWIDTH 1333 0
DWIDTH 16 0
BBX 14 27 1 0
BITMAP
1863
3CF0
3CF0
3CF0
1860
0000
0000
1FE0
7FF8
7FF8
FFFC
F03C
F03C
F03C
F03C
F03C
F03C
F03C
F03C
F03C
F03C
F03C
F03C
FFFC
7FF8
7FF8
1FE0
ENDCHAR
STARTCHAR Udieresis
ENCODING 220
SWIDTH 1333 0
DWIDTH 16 0
BBX 14 27 1 0
BITMAP
1862
3CF0
3CF0
3CF0
1860
0000
0000
F03C
F03C
F03C
F03C
F03C
F03C
F03C
F03C
F03C
F03C
F03C
F03C
F03C
F03C
F03C
F03C
FFFC
7FF8
7FF8
1FE0
ENDCHAR
STARTCHAR aacute
ENCODING 225
SWIDTH 1166 0
DWIDTH 14 0
BBX 12 24 1 0
BITMAP
03CF
07CC
0F8F
1F0C
3E0F
3C0F
000F
000F
3F8F
3FEF
3FEF
3FFF
00FF
00FF
1FFF
7FFF
7FFF
FFFF
F0FF
F0FF
FFF0
7FF0
7FF0
1FF0
ENDCHAR
STARTCHAR agrave
ENCODING 224
SWIDTH 1166 0
DWIDTH 14 0
BBX 12 24 1 0
BITMAP
7800
7C0C
3E04
1F0C
0F8C
078C
000C
000C
3F8C
3FEC
3FEC
3FFC
00FC
00FC
1FFC
7FFC
7FFC
FFF8
F0F8
F0F0
FFF0
7FF0
7FF0
1FF0
ENDCHAR
STARTCHAR acircumflex
ENCODING 226
SWIDTH 1166 0
DWIDTH 14 0
BBX 12 24 1 0
BITMAP
0600
0F04
1F8F
3FC4
79EC
70EC
000C
000C
3F8C
3FEC
3FEC
3FFC
00FC
00FC
1FFC
7FFC
7FFC
FFF8
F0F8
F0F0
FFF0
7FF0
7FF0
1FF0
ENDCHAR
STARTCHAR adieresis
ENCODING 228
SWIDTH 1166 0
DWIDTH 14 0
BBX 12 23 1 0
BITMAP
30C0
79EC
79E2
79E4
30C0
0000
0000
3F80
3FE0
3FE0
3FF0
00F0
00F0
1FF0
7FF0
7FF0
FFF0
F0F0
F0F0
FFF0
7FF0
7FF0
1FF0
ENDCHAR
STARTCHAR atilde
ENCODING 227
SWIDTH 1166 0
DWIDTH 14 0
BBX 12 24 1 0
BITMAP
3C3F
7E3C
FF34
CFFC
C7E0
C3C0
0000
0000
3F80
3FE0
3FE0
3FF0
00F0
00F0
1FF0
7FF0
7FF0
FFF0
F0F0
F0F0
FFF0
7FF0
7FF0
1FF0
ENDCHAR
STARTCHAR aring
ENCODING 229
SWIDTH 1166 0
DWIDTH 14 0
BBX 12 24 1 0
BITMAP
0F02
3FCC
70E0
70E4
3FC0
0F00
0000
0000
3F80
3FE0
3FE0
3FF0
00F0
00F0
1FF0
7FF0
7FF0
FFF0
F0F0
F0F0
FFF0
7FF0
7FF0
1FF0
ENDCHAR
STARTCHAR ccedilla
ENCODING 231
SWIDTH 1166 0
DWIDTH 14 0
BBX 12 22 1 -6
BITMAP
1F80
7FEC
7FE2
FFFC
F0F0
F0F0
F000
F000
F000
F000
F0F0
F0F0
FFF0
7FE0
7FE0
1F80
0F00
0F00
FF00
FE00
FE00
F800
ENDCHAR
STARTCHAR eacute
ENCODING 233
SWIDTH 1166 0
DWIDTH 14 0
BBX 12 24 1 0
BITMAP
01E4
03EC
07C0
0F8C
1F01
1E00
000C
0008
1F82
7FE8
7FE4
FFF3
F0F0
F0F8
FFF0
FFE0
FFE4
FF8C
F000
F00C
FFF0
7FF8
7FF0
1FF0
ENDCHAR
STARTCHAR egrave
ENCODING 232
SWIDTH 1166 0
DWIDTH 14 0
BBX 12 24 1 0
BITMAP
7802
7C0C
3E04
1F0C
0F80
0780
0000
0000
1F80
7FE8
7FE0
FFF8
F0F2
F0FC
FFF0
FFE4
FFE0
FF88
F000
F008
FFF0
7FF0
7FF0
1FFC
ENDCHAR
STARTCHAR ecircumflex
ENCODING 234
SWIDTH 1166 0
DWIDTH 14 0
BBX 12 24 1 0
BITMAP
0600
0F04
1F82
3FCC
79E1
70E1
0004
0002
1F80
7FE7
7FE5
FFF1
F0F0
F0F0
FFF0
FFE8
FFE0
FF80
F000
F00C
FFF2
7FF1
7FFA
1FF6
ENDCHAR
STARTCHAR edieresis
ENCODING 235
SWIDTH 1166 0
DWIDTH 14 0
BBX 12 23 1 0
BITMAP
30C2
79EC
79E2
79E4
30C0
0000
0000
1F80
7FE0
7FE0
FFF0
F0F0
F0F0
FFF0
FFE0
FFE0
FF80
F000
F000
FFF0
7FF0
7FF0
1FF0
ENDCHAR
STARTCHAR iacute
ENCODING 237
SWIDTH 833 0
DWIDTH 10 0
BBX 8 24 1 0
BITMAP
0F
1F
3E
7C
F8
F0
00
00
FC
FC
FC
FC
3C
3C
3C
3C
3C
3C
3C
3C
FF
FF
FF
FF
ENDCHAR
STARTCHAR igrave
ENCODING 236
SWIDTH 833 0
DWIDTH 10 0
BBX 10 24 -1 0
BITMAP
F01F
F80C
7C22
3E24
1F00
0F20
0020
0030
3F30
3F30
3F30
3F20
0F20
0F00
0F00
0F00
0F30
0F30
0F30
0F30
3FC0
3FC0
3FC0
3FC0
ENDCHAR
STARTCHAR icircumflex
ENCODING 238
SWIDTH 833 0
DWIDTH 10 0
BBX 10 24 -1 0
BITMAP
0C22
1E1C
3F20
7F9C
F3C0
E1E8
0000
0028
3F00
3F00
3F00
3F05
0F01
0F01
0F05
0F05
0F00
0F00
0F06
0F34
3FC0
3FC8
3FC0
3FF0
ENDCHAR
STARTCHAR idieresis
ENCODING 239
SWIDTH 833 0
DWIDTH 10 0
BBX 10 23 -1 0
BITMAP
619F
F3FC
F3E0
F3FC
6181
003A
000C
3F28
3F22
3F30
3F27
0F10
0F00
0F20
0F00
0F38
0F22
0F24
0F22
3FEC
3FC0
3FC0
3FC0
ENDCHAR
STARTCHAR ntilde
ENCODING 241
SWIDTH 1166 0
DWIDTH 14 0
BBX 12 24 1 0
BITMAP
3C34
7E3C
FF32
CFFC
C7E0
C3C8
0000
0008
1F80
7FE8
7FE0
FFF8
F0F0
F0F0
F0F0
F0F2
F0F2
F0F1
F0FC
F0F1
F0F2
F0F1
F0F0
F0F5
ENDCHAR
STARTCHAR oacute
ENCODING 243
SWIDTH 1166 0
DWIDTH 14 0
BBX 12 24 1 0
BITMAP
01E2
03EC
07C4
0F8C
1F02
1E08
0005
000C
1F80
7FE0
7FE0
FFF0
F0F0
F0F8
F0F0
F0F8
F0F0
F0F0
F0F0
F0FC
FFF2
7FE1
7FEA
1F86
ENDCHAR
STARTCHAR ograve
ENCODING 242
SWIDTH 1166 0
DWIDTH 14 0
BBX 12 24 1 0
BITMAP
780F
7C04
3E02
1F0C
0F80
0788
0000
0000
1F80
7FEC
7FE2
FFFC
F0F0
F0F8
F0F0
F0F8
F0F3
F0F7
F0FF
F0FF
FFFB
7FE3
7FE3
1F83
ENDCHAR
STARTCHAR ocircumflex
ENCODING 244
SWIDTH 1166 0
DWIDTH 14 0
BBX 12 24 1 0
BITMAP
0602
0F0C
1F80
3FC4
79E0
70E0
0000
0000
1F80
7FE0
7FE0
FFF0
F0F0
F0F0
F0F0
F0F0
F0F0
F0F0
F0F0
F0F0
FFF0
7FE0
7FE0
1F80
ENDCHAR
STARTCHAR odieresis
ENCODING 246
SWIDTH 1166 0
DWIDTH 14 0
BBX 12 23 1 0
BITMAP
30C2
79E4
79E4
79EC
30C0
0000
0000
1F80
7FE0
7FE0
FFF0
F0F0
F0F0
F0F0
F0F0
F0F0
F0F0
F0F0
F0F0
FFF0
7FE0
7FE0
1F80
ENDCHAR
STARTCHAR otilde
ENCODING 245
SWIDTH 1166 0
DWIDTH 14 0
BBX 12 24 1 0
BITMAP
3C30
7E34
FF32
CFF4
C7E0
C3C0
0000
0000
1F80
7FE0
7FE0
FFF0
F0F0
F0F0
F0F0
F0F0
F0F0
F0F0
F0F0
F0F0
FFF0
7FE0
7FE0
1F80
ENDCHAR
STARTCHAR uacute
ENCODING 250
SWIDTH 1166 0
DWIDTH 14 0
BBX 12 24 1 0
BITMAP
01E2
03EC
07CF
0F84
1F00
1E04
0002
0004
F0F0
F0F8
F0F0
F0F0
F0F1
F0F9
F0F1
F0F0
F0F0
F0F8
F0F0
F0F0
FFFC
7FF2
7FFE
1FFC
ENDCHAR
STARTCHAR ugrave
ENCODING 249
SWIDTH 1166 0
DWIDTH 14 0
BBX 12 24 1 0
BITMAP
780F
7C04
3E00
1F04
0F80
0780
0000
0000
F0F0
F0F0
F0F0
F0F0
F0F0
F0F0
F0F0
F0F0
F0F0
F0F0
F0F0
F0F0
FFF0
7FF0
7FF0
1FF0
ENDCHAR
STARTCHAR ucircumflex
ENCODING 251
SWIDTH 1166 0
DWIDTH 14 0
BBX 12 24 1 0
BITMAP
0602
0F0C
1F80
3FCC
79E1
70E0
000C
0008
F0F2
F0F8
F0F3
F0F0
F0F0
F0F8
F0F0
F0F8
F0F0
F0F0
F0F0
F0FE
FFF2
7FF1
7FFA
1FF7
ENDCHAR
STARTCHAR udieresis
ENCODING 252
SWIDTH 1166 0
DWIDTH 14 0
BBX 12 23 1 0
BITMAP
30C2
79E4
79E2
79E4
30C0
0000
0000
F0F0
F0F0
F0F0
F0F0
F0F0
F0F0
F0F0
F0F0
F0F0
F0F0
F0F0
F0F0
FFF0
7FF0
7FF0
1FF0
ENDCHAR
STARTCHAR dagger
ENCODING 8224
SWIDTH 1166 0
DWIDTH 14 0
BBX 10 14 2 6
BITMAP
0C20
0C2C
0C22
0C1C
FFF0
FFF0
0C30
0C30
0C30
0C30
0C30
0C30
0C00
0C20
ENDCHAR
STARTCHAR degree
ENCODING 176
SWIDTH 1166 0
DWIDTH 14 0
BBX 10 10 2 10
BITMAP
1E20
7FB4
73A0
E1E4
C0F0
C0F0
E1F0
73B0
7F80
1E18
ENDCHAR
STARTCHAR cent
ENCODING 162
SWIDTH 1166 0
DWIDTH 14 0
BBX 12 22 1 -2
BITMAP
0F02
0F04
0F00
0F0C
1F80
7FE0
7FE0
FFF0
F0F0
F0F0
F000
F000
F0F0
F0F0
FFF0
7FE0
7FE0
1F80
0F00
0F00
0F00
0F00
ENDCHAR
STARTCHAR sterling
ENCODING 163
SWIDTH 1250 0
DWIDTH 15 0
BBX 14 20 0 0
BITMAP
007E
01FC
03FE
07FC
07C0
0F80
0F00
0F00
3FF0
3FF0
0F00
0F00
0F00
0F00
0F00
0F00
0FFC
3FFC
FFFC
FFFC
ENDCHAR
STARTCHAR section
ENCODING 167
SWIDTH 1166 0
DWIDTH 14 0
BBX 12 22 1 -3
BITMAP
0300
0FC4
0FE2
1C7C
1C30
1E00
1F80
3FC0
79E0
70E0
E070
E070
70E0
79E0
3FC0
1F80
0780
C380
E380
7F00
3F00
0C00
ENDCHAR
STARTCHAR bullet
ENCODING 8226
SWIDTH 1166 0
DWIDTH 14 0
BBX 10 10 2 4
BITMAP
1E20
7F9C
7FA0
FFCC
FFC0
FFC0
FFC0
7F80
7F80
1E18
ENDCHAR
STARTCHAR paragraph
ENCODING 182
SWIDTH 1666 0
DWIDTH 20 0
BBX 18 20 1 0
BITMAP
1FF3E0
7FF3E0
70F3DC
F0F3F0
F0F3DF
F0F3C0
F0F3F0
70F3F0
7FF3F0
1FF3E0
00F3DF
00F3C0
00F3E3
00F3C0
00F3CC
00F3C0
00F3C0
00F3C0
00F3C0
00F3C0
ENDCHAR
STARTCHAR germandbls
ENCODING 223
SWIDTH 1166 0
DWIDTH 14 0
BBX 12 24 1 -4
BITMAP
0602
1F84
3FC2
7FE4
70E0
F0F0
F0F0
F0F0
FFE0
FFE0
FFF0
FFF0
F0F0
F0F0
F0F0
F0F0
FFF0
FFE0
F7E0
F380
F000
E000
E000
8000
ENDCHAR
STARTCHAR registered
ENCODING 174
SWIDTH 1333 0
DWIDTH 16 0
BBX 14 20 1 0
BITMAP
0780
1FE0
3872
6018
601B
C00F
CF0C
CF8F
CCCC
CCCC
CF8F
CF8C
CCCC
CCCF
C00C
6018
601B
3873
1FE0
0783
ENDCHAR
STARTCHAR copyright
ENCODING 169
SWIDTH 1333 0
DWIDTH 16 0
BBX 14 20 1 0
BITMAP
0780
1FE0
3870
6018
6018
C00C
C3CC
C7CC
CE0C
CC0C
CC0C
CE0C
C7CC
C3CC
C00C
6018
6018
3870
1FE0
0780
ENDCHAR
STARTCHAR trademark
ENCODING 8482
SWIDTH 1500 0
DWIDTH 18 0
BBX 16 8 1 12
BITMAP
FF03
FF87
33CF
33FF
337B
3333
3303
3303
ENDCHAR
STARTCHAR acute
ENCODING 180
SWIDTH 833 0
DWIDTH 10 0
BBX 6 10 2 12
BITMAP
0F
1E
3F
7C
FF
FE
F8
F0
E0
C0
ENDCHAR
STARTCHAR dieresis
ENCODING 168
SWIDTH 1166 0
DWIDTH 14 0
BBX 10 5 2 16
BITMAP
61A0
F3DC
F3E2
F3E4
6180
ENDCHAR
STARTCHAR notequal
ENCODING 8800
SWIDTH 1500 0
DWIDTH 18 0
BBX 14 18 2 1
BITMAP
0078
0078
00F0
FFFC
FFFC
FFFC
FFFC
03C0
0780
0780
0F00
FFFC
FFFC
FFFC
FFFE
3C00
7800
7800
ENDCHAR
STARTCHAR AE
ENCODING 198
SWIDTH 2000 0
DWIDTH 24 0
BBX 22 20 1 0
BITMAP
1FFFFD
7FFFFC
7FFFFC
FFFFFC
F03C00
F03C00
F03C00
F03C00
FFFFF0
FFFFF0
FFFFF0
FFFFF0
F03C00
F03C00
F03C00
F03C00
F03FFC
F03FFC
F03FFC
F03FFC
ENDCHAR
STARTCHAR Oslash
ENCODING 216
SWIDTH 1500 0
DWIDTH 18 0
BBX 18 20 0 0
BITMAP
07F84B
1FFEE2
1FFFFF
3FFFFC
3C0FBF
3C1F00
3C3F07
3C7F00
3CFF3F
3DFF3C
3FEF3C
3FCF00
3F8F00
3F0F00
3E0F00
7C0F00
FFFF00
FFFE04
DFFE00
87F800
ENDCHAR
STARTCHAR infinity
ENCODING 8734
SWIDTH 1666 0
DWIDTH 20 0
BBX 16 8 2 8
BITMAP
1E38
7F7E
778E
E387
E1C7
71EE
7EFE
1C78
ENDCHAR
STARTCHAR plusminus
ENCODING 177
SWIDTH 1333 0
DWIDTH 16 0
BBX 12 18 2 0
BITMAP
0F02
0F0C
0F0F
0F04
FFFF
FFFF
FFF0
FFFF
0F0F
0F00
0F0C
0F00
0000
000C
FFF0
FFF0
FFF0
FFF8
ENDCHAR
STARTCHAR lessequal
ENCODING 8804
SWIDTH 1333 0
DWIDTH 16 0
BBX 12 20 2 0
BITMAP
03F0
07E4
0FC4
1F8C
3F00
7E0F
FC0C
FC00
7E0F
3F0F
1F80
0FCE
07E7
03F0
0000
0000
FFF0
FFF0
FFF0
FFF0
ENDCHAR
STARTCHAR greaterequal
ENCODING 8805
SWIDTH 1333 0
DWIDTH 16 0
BBX 12 20 2 0
BITMAP
FC04
7E0C
3F02
1F84
0FC0
07E0
03F0
03F0
07E2
0FC1
1F80
3F08
7E01
FC0C
0002
000C
FFF0
FFF0
FFF2
FFF0
ENDCHAR
STARTCHAR yen
ENCODING 165
SWIDTH 1166 0
DWIDTH 14 0
BBX 12 20 1 0
BITMAP
F0F2
F0F4
F0F0
F0F4
F0F2
79EC
7FE4
3FCC
1F80
0F00
FFF0
FFF8
0F00
0F00
0F00
0F08
0F02
0F01
0F0F
0F04
ENDCHAR
STARTCHAR mu
ENCODING 181
SWIDTH 1500 0
DWIDTH 18 0
BBX 16 20 1 -4
BITMAP
3C3C
3C3C
3C3C
3C3C
3C3C
3C3C
3C3C
3C3C
3C3C
3C3C
3C3C
3C3C
3FFC
3FFE
37F7
73E3
7000
E000
E000
C000
ENDCHAR
STARTCHAR partialdiff
ENCODING 8706
SWIDTH 1416 0
DWIDTH 17 0
BBX 16 18 0 0
BITMAP
1F00
7F80
73C0
E3E0
03F0
07F8
0F3C
1E1E
1C0E
3C0F
3C0F
3C0F
3C0F
1C0E
1E1E
0F3C
07F8
01E0
ENDCHAR
STARTCHAR summation
ENCODING 8721
SWIDTH 1500 0
DWIDTH 18 0
BBX 16 20 1 0
BITMAP
FFFF
FFFF
7FFF
3FFF
1F00
0F80
07C0
03E0
01F0
00F8
00F8
01F0
03E0
07C0
0F80
1F00
3FFF
7FFF
FFFF
FFFF
ENDCHAR
STARTCHAR product
ENCODING 8719
SWIDTH 1500 0
DWIDTH 18 0
BBX 16 20 1 0
BITMAP
FFFF
FFFF
FFFF
FFFF
3C3C
3C3C
3C3C
3C3C
3C3C
3C3C
3C3C
3C3C
3C3C
3C3C
3C3C
3C3C
FC3F
FC3F
FC3F
FC3F
ENDCHAR
STARTCHAR pi
ENCODING 960
SWIDTH 1666 0
DWIDTH 20 0
BBX 18 16 1 0
BITMAP
0000CC
0000E0
1FFFDE
7FFFB6
7FFFBC
FFFE00
CF3C33
CF3C28
0F3C33
0F3C00
0F3C00
0F3C30
0F3C00
0F3C00
0F3C00
0F3C10
ENDCHAR
STARTCHAR integral
ENCODING 8747
SWIDTH 1666 0
DWIDTH 20 0
BBX 16 32 2 -6
BITMAP
0078
01FE
01C2
03C3
03C7
03CF
03CF
03C6
03C0
03C0
03C0
03C0
03C0
03C0
03C0
03C0
03C0
03C0
03C0
03C0
03C0
03C0
03C0
03C0
63C0
F3C0
F3C0
E3C0
C3C0
4380
7F80
1E00
ENDCHAR
STARTCHAR ordfeminine
ENCODING 170
SWIDTH 1083 0
DWIDTH 13 0
BBX 11 16 1 4
BITMAP
3F02
3FCC
01C0
01FC
1FEF
7FE0
F1E0
F1E0
7FE0
1FE0
0000
0000
FFE0
FFE0
FFE0
FFFC
ENDCHAR
STARTCHAR ordmasculine
ENCODING 186
SWIDTH 1166 0
DWIDTH 14 0
BBX 12 16 1 4
BITMAP
1F80
7FE4
70E2
F0FC
F0F0
F0F0
F0F0
70E8
7FE0
1F80
0000
0000
FFF0
FFF1
FFF0
FFF0
ENDCHAR
STARTCHAR Omega
ENCODING 937
SWIDTH 1333 0
DWIDTH 16 0
BBX 14 20 1 0
BITMAP
0782
1FE0
3CF0
7878
7038
F03C
F03C
F03C
F03F
F03D
7039
7878
3CF0
1CE0
CCCC
CCCC
FCFC
7CF8
7CF8
1CE0
ENDCHAR
STARTCHAR ae
ENCODING 230
SWIDTH 1833 0
DWIDTH 22 0
BBX 20 16 1 0
BITMAP
3F8F84
3FDFE2
3FFFEE
3FFFF0
00F0F5
00F0F0
1FFFF0
7FFFE0
7FFFE8
FFFF82
F0F00E
F0F000
FFFFFE
7FFFF0
7FFFFF
1FFFF0
ENDCHAR
STARTCHAR oslash
ENCODING 248
SWIDTH 1333 0
DWIDTH 16 0
BBX 16 16 0 0
BITMAP
07E1
1FFB
1FFF
3FFE
3C3C
3C3C
3CFC
3DFC
3FBC
3F3C
3C3C
3C3C
7FFC
FFF8
DFF8
87E0
ENDCHAR
STARTCHAR questiondown
ENCODING 191
SWIDTH 1166 0
DWIDTH 14 0
BBX 12 23 1 -4
BITMAP
0602
0F04
0F00
0F04
0600
0000
0000
0F00
0F00
0F00
0F0F
1E0F
3E00
7C0F
780F
F0F0
F0F0
F0F0
F0F0
FFFF
7FEF
7FE0
1F8F
ENDCHAR
STARTCHAR exclamdown
ENCODING 161
SWIDTH 833 0
DWIDTH 10 0
BBX 4 25 3 -3
BITMAP
63
F2
FD
F4
63
02
03
FC
FC
FC
FC
FC
FC
FC
FD
FC
FF
FC
FF
FC
FC
FC
FC
FC
F0
ENDCHAR
STARTCHAR logicalnot
ENCODING 172
SWIDTH 1500 0
DWIDTH 18 0
BBX 14 8 2 0
BITMAP
FFFE
FFFC
FFFC
FFFC
003C
003C
003C
003C
ENDCHAR
STARTCHAR radical
ENCODING 8730
SWIDTH 1416 0
DWIDTH 17 0
BBX 15 20 1 0
BITMAP
000E
000E
001C
001C
0038
0038
0070
0070
C0E0
C0E0
E1C0
E1C0
7381
7380
3F00
3F00
1E01
1E00
0C00
0C00
ENDCHAR
STARTCHAR florin
ENCODING 402
SWIDTH 833 0
DWIDTH 10 0
BBX 8 26 1 -4
BITMAP
07
1F
1F
3F
3C
3C
3C
3C
3C
3C
FF
FF
FF
FF
3C
3C
3C
3C
3C
3C
3C
3C
FC
F8
F8
E0
ENDCHAR
STARTCHAR approxequal
ENCODING 8776
SWIDTH 1333 0
DWIDTH 16 0
BBX 12 14 2 4
BITMAP
0032
003C
1FF0
7FE4
7FE0
FF80
C030
C030
1FF0
7FE8
7FE0
FF88
C000
C000
ENDCHAR
STARTCHAR increment
ENCODING 8710
SWIDTH 1333 0
DWIDTH 16 0
BBX 14 16 1 0
BITMAP
0300
0300
0782
0780
0FC0
0FC0
1CE0
1CE0
3870
3870
7038
7038
E01C
FFFC
FFFC
FFFC
ENDCHAR
STARTCHAR guillemotleft
ENCODING 171
SWIDTH 1500 0
DWIDTH 18 0
BBX 16 14 1 2
BITMAP
03CF
079E
0F3C
1E78
3CF0
79E0
F3C0
F3C0
79E0
3CF0
1E78
0F3C
079E
03CF
ENDCHAR
STARTCHAR guillemotright
ENCODING 187
SWIDTH 1500 0
DWIDTH 18 0
BBX 16 14 1 2
BITMAP
F3C0
79E0
3CF0
1E78
0F3C
079E
03CF
03CF
079E
0F3C
1E78
3CF0
79E0
F3C0
ENDCHAR
STARTCHAR ellipsis
ENCODING 8230
SWIDTH 1833 0
DWIDTH 22 0
BBX 18 6 2 0
BITMAP
60C184
F1E3E2
F1E3EC
F1E3E9
F1E3EC
60C180
ENDCHAR
STARTCHAR nbspace
ENCODING 160
SWIDTH 1333 0
DWIDTH 16 0
BBX 0 0 0 0
BITMAP
ENDCHAR
STARTCHAR Agrave
ENCODING 192
SWIDTH 1333 0
DWIDTH 16 0
BBX 14 28 1 0
BITMAP
3C00
3E00
1F00
0F80
07C0
03C2
0000
0001
1FE0
7FF8
7FF8
FFFC
F03C
F03C
F03C
F03C
FFFE
FFFD
FFFC
FFFE
F03D
F03E
F03E
F03C
F03E
F03C
F03F
F03C
ENDCHAR
STARTCHAR Atilde
ENCODING 195
SWIDTH 1333 0
DWIDTH 16 0
BBX 14 28 1 0
BITMAP
1E18
3F18
7F98
67F8
63F0
61E0
0000
0000
1FE0
7FF8
7FF8
FFFC
F03C
F03C
F03C
F03C
FFFC
FFFC
FFFC
FFFC
F03C
F03C
F03C
F03C
F03C
F03C
F03C
F03C
ENDCHAR
STARTCHAR Otilde
ENCODING 213
SWIDTH 1333 0
DWIDTH 16 0
BBX 14 28 1 0
BITMAP
1E18
3F18
7F99
67F8
63F0
61E0
0000
0000
1FE0
7FF8
7FF8
FFFC
F03D
F03C
F03E
F03C
F03C
F03C
F03C
F03C
F03C
F03C
F03C
F03C
FFFC
7FF8
7FF8
1FE0
ENDCHAR
STARTCHAR OE
ENCODING 338
SWIDTH 2000 0
DWIDTH 24 0
BBX 22 20 1 0
BITMAP
1FFFFF
7FFFFE
7FFFFF
FFFFFC
F03C00
F03C00
F03C03
F03C00
F03FF0
F03FF0
F03FF0
F03FF0
F03C00
F03C00
F03C00
F03C00
FFFFFF
7FFFFC
7FFFFC
1FFFFC
ENDCHAR
STARTCHAR oe
ENCODING 339
SWIDTH 1833 0
DWIDTH 22 0
BBX 20 16 1 0
BITMAP
1FFF84
7FFFE2
7FFFE3
FFFFF0
F0F0FD
F0F0F0
F0FFF0
F0FFE0
F0FFE4
F0FF82
F0F000
F0F000
FFFFF0
7FFFF2
7FFFFF
1FFFFC
ENDCHAR
STARTCHAR endash
ENCODING 8211
SWIDTH 1500 0
DWIDTH 18 0
BBX 14 4 2 8
BITMAP
FFFE
FFFC
FFFC
FFFC
ENDCHAR
STARTCHAR emdash
ENCODING 8212
SWIDTH 2000 0
DWIDTH 24 0
BBX 20 4 2 8
BITMAP
FFFFF0
FFFFF2
FFFFF0
FFFFF0
ENDCHAR
STARTCHAR quotedblleft
ENCODING 8220
SWIDTH 1166 0
DWIDTH 14 0
BBX 10 8 2 12
BITMAP
30E2
71CC
C314
C31C
E380
F3C0
F3C0
6180
ENDCHAR
STARTCHAR quotedblright
ENCODING 8221
SWIDTH 1166 0
DWIDTH 14 0
BBX 10 8 2 12
BITMAP
6194
F3DC
F3E2
71E4
30E2
30CC
E3A2
C33C
ENDCHAR
STARTCHAR quoteleft
ENCODING 8216
SWIDTH 666 0
DWIDTH 8 0
BBX 4 8 2 12
BITMAP
33
72
C5
C4
E3
F2
FF
6C
ENDCHAR
STARTCHAR quoteright
ENCODING 8217
SWIDTH 666 0
DWIDTH 8 0
BBX 4 8 2 12
BITMAP
63
F1
F1
7C
33
34
E4
CC
ENDCHAR
STARTCHAR divide
ENCODING 247
SWIDTH 1333 0
DWIDTH 16 0
BBX 12 16 2 2
BITMAP
0602
0F04
0F01
060C
0000
0000
FFF0
FFF0
FFF0
FFF8
0000
0008
0602
0F04
0F01
060C
ENDCHAR
STARTCHAR lozenge
ENCODING 9674
SWIDTH 1333 0
DWIDTH 16 0
BBX 14 14 1 4
BITMAP
0300
0780
0FC2
1FE0
3CF1
7878
F03F
F03D
787A
3CF0
1FE0
0FC0
0780
0300
ENDCHAR
STARTCHAR ydieresis
ENCODING 255
SWIDTH 1166 0
DWIDTH 14 0
BBX 12 29 1 -6
BITMAP
30C2
79EC
79E1
79EC
30CF
000D
000C
F0FD
F0F2
F0F1
F0F0
F0F7
F0FD
F0F2
F0F0
F0F7
F0FD
F0F1
F0FF
FFF0
7FFF
7FF1
1FFD
00F0
00F0
FFF8
FFE0
FFE8
FF80
ENDCHAR
STARTCHAR Ydieresis
ENCODING 376
SWIDTH 1500 0
DWIDTH 18 0
BBX 16 27 1 0
BITMAP
0C30
1E78
1E78
1E78
0C30
0000
0000
F00F
F00F
F00F
F00F
F81F
781E
7C3E
3E7C
1FF8
0FF0
07E0
03C0
03C0
03C0
03C0
03C0
03C0
03C0
03C0
03C0
ENDCHAR
STARTCHAR fraction1
ENCODING 8260
SWIDTH 1333 0
DWIDTH 16 0
BBX 16 26 0 -4
BITMAP
000F
000F
001E
001E
003C
003C
0078
0078
00F0
00F0
01E0
01E0
03C0
03C0
0780
0780
0F00
0F00
1E00
1E00
3C00
3C00
7800
7800
F000
F000
ENDCHAR
STARTCHAR Euro
ENCODING 8364
SWIDTH 1333 0
DWIDTH 16 0
BBX 14 20 1 0
BITMAP
1FE0
7FF8
7FFA
FFFC
F03C
F03C
FF00
FF00
FF01
F001
F000
FF01
FF00
FF02
F03C
F03C
FFFC
7FF8
7FF8
1FE0
ENDCHAR
STARTCHAR guilsinglleft
ENCODING 8249
SWIDTH 1166 0
DWIDTH 14 0
BBX 10 14 2 2
BITMAP
03E2
0784
0F21
1E04
3C30
7830
F030
F030
7830
3C30
1E30
0F30
0780
03E0
ENDCHAR
STARTCHAR guilsinglright
ENCODING 8250
SWIDTH 1166 0
DWIDTH 14 0
BBX 10 14 2 2
BITMAP
F014
781C
3C21
1E3C
0F00
0780
03C0
03C0
0780
0F00
1E00
3C00
7800
F020
ENDCHAR
STARTCHAR fi
ENCODING 64257
SWIDTH 1500 0
DWIDTH 18 0
BBX 16 22 1 0
BITMAP
07FC
1FFC
1FFC
3FFC
3C00
3C00
FFFC
FFFC
FFFC
FFFC
3C3C
3C3C
3C3C
3C3C
3C3C
3C3C
3C3C
3C3C
3C3F
3C3F
3C3F
3C3F
ENDCHAR
STARTCHAR fl
ENCODING 64258
SWIDTH 1500 0
DWIDTH 18 0
BBX 16 22 1 0
BITMAP
07FF
1FFF
1FFF
3FFF
3C0F
3C0F
FFFF
FFFF
FFFF
FFFF
3C0F
3C0F
3C0F
3C0F
3C0F
3C0F
3C0F
3C0F
3C0F
3C0F
3C0F
3C0F
ENDCHAR
STARTCHAR daggerdbl
ENCODING 8225
SWIDTH 1166 0
DWIDTH 14 0
BBX 10 20 2 0
BITMAP
0C22
0C1C
CCE2
CCF4
FFC3
FFC0
CCC0
CCC7
0C00
0C1E
0C07
0C3E
CCF3
CCCF
FFE6
FFFF
CCC0
CCD8
0C00
0C38
ENDCHAR
STARTCHAR periodcentered
ENCODING 183
SWIDTH 1000 0
DWIDTH 12 0
BBX 4 6 4 8
BITMAP
63
F1
F3
FC
F3
61
ENDCHAR
STARTCHAR quotesinglbase
ENCODING 8218
SWIDTH 666 0
DWIDTH 8 0
BBX 4 8 2 0
BITMAP
63
F2
F8
7C
33
31
E3
CC
ENDCHAR
STARTCHAR quotedblbase
ENCODING 8222
SWIDTH 1166 0
DWIDTH 14 0
BBX 10 8 2 0
BITMAP
6194
F3DC
F3E2
71FC
30C2
30C1
E38A
C31B
ENDCHAR
STARTCHAR perthousand
ENCODING 8240
SWIDTH 2166 0
DWIDTH 26 0
BBX 24 20 1 0
BITMAP
781C00
FC3C00
CC3C00
CC7800
FC7800
78F000
00F000
01E000
01E000
03C000
03C000
078000
078000
0F0000
0F1E1E
1E3F3F
1E3333
3C3333
3C3F3F
381E1E
ENDCHAR
STARTCHAR Acircumflex
ENCODING 194
SWIDTH 1333 0
DWIDTH 16 0
BBX 14 28 1 0
BITMAP
0301
0780
0FC1
1FE0
3CF0
3870
0000
0000
1FE0
7FF8
7FF8
FFFC
F03C
F03C
F03C
F03C
FFFC
FFFC
FFFC
FFFC
F03C
F03C
F03D
F03C
F03C
F03F
F03C
F03C
ENDCHAR
STARTCHAR Ecircumflex
ENCODING 202
SWIDTH 1333 0
DWIDTH 16 0
BBX 14 28 1 0
BITMAP
0300
0780
0FC1
1FE0
3CF0
3870
0000
0000
FFFD
FFFC
FFFC
FFFC
F000
F000
F000
F000
FFF0
FFF0
FFF0
FFF0
F000
F000
F000
F000
FFFC
FFFC
FFFC
FFFC
ENDCHAR
STARTCHAR Aacute
ENCODING 193
SWIDTH 1333 0
DWIDTH 16 0
BBX 14 28 1 0
BITMAP
00F1
01F0
03E2
07C0
0F80
0F00
0000
0000
1FE0
7FF8
7FF8
FFFC
F03C
F03C
F03C
F03C
FFFC
FFFC
FFFC
FFFC
F03C
F03C
F03C
F03C
F03C
F03C
F03C
F03C
ENDCHAR
STARTCHAR Edieresis
ENCODING 203
SWIDTH 1333 0
DWIDTH 16 0
BBX 14 27 1 0
BITMAP
1860
3CF0
3CF2
3CF0
1860
0000
0002
FFFC
FFFC
FFFC
FFFC
F000
F002
F000
F000
FFF0
FFF3
FFF3
FFF0
F000
F000
F000
F000
FFFC
FFFE
FFFC
FFFC
ENDCHAR
STARTCHAR Egrave
ENCODING 200
SWIDTH 1333 0
DWIDTH 16 0
BBX 14 28 1 0
BITMAP
3C02
3E00
1F01
0F80
07C0
03C0
0000
0000
FFFC
FFFC
FFFC
FFFC
F000
F000
F000
F000
FFF2
FFF1
FFF2
FFF0
F001
F000
F000
F000
FFFD
FFFC
FFFC
FFFC
ENDCHAR
STARTCHAR Iacute
ENCODING 205
SWIDTH 833 0
DWIDTH 10 0
BBX 9 28 1 0
BITMAP
07A1
0F9C
1F21
3E04
7C00
7800
0004
0000
FF00
FF00
FF00
FF38
3C00
3C00
3C00
3C36
3C02
3C01
3C0A
3C1B
3C01
3C00
3C0C
3C68
FF22
FF08
FF5A
FF30
ENDCHAR
STARTCHAR Icircumflex
ENCODING 206
SWIDTH 833 0
DWIDTH 10 0
BBX 10 28 0 0
BITMAP
0C14
1E1C
3F21
7FAC
F3C0
E1C0
0000
0036
7F82
7F81
7F8A
7F9B
1E01
1E00
1E0C
1E28
1E22
1E00
1E19
1E00
1E00
1E28
1E00
1E10
7F94
7F9C
7FA0
7F9C
ENDCHAR
STARTCHAR Idieresis
ENCODING 207
SWIDTH 833 0
DWIDTH 10 0
BBX 10 27 0 0
BITMAP
61A1
F3E4
F3E1
F3E4
61BC
003C
003F
7FBF
7F80
7F88
7F80
1E38
1E00
1E00
1E00
1E0C
1E02
1E01
1E09
1E06
1E02
1E16
1E0D
7FBB
7FA2
7F90
7F86
ENDCHAR
STARTCHAR Igrave
ENCODING 204
SWIDTH 833 0
DWIDTH 10 0
BBX 9 28 0 0
BITMAP
F021
F874
7C21
3E1C
1F01
0F00
000C
0068
7FA1
7F88
7FD2
7F84
1E00
1E28
1E00
1E10
1E14
1E1C
1E22
1E5C
1E00
1E38
1E00
1E40
7FA2
7F8C
7F94
7F9C
ENDCHAR
STARTCHAR Oacute
ENCODING 211
SWIDTH 1333 0
DWIDTH 16 0
BBX 14 28 1 0
BITMAP
00F0
01F0
03E2
07C0
0F80
0F00
0000
0000
1FE0
7FF8
7FFA
FFFC
F03C
F03C
F03C
F03C
F03E
F03C
F03C
F03C
F03C
F03C
F03C
F03C
FFFC
7FF8
7FF8
1FE0
ENDCHAR
STARTCHAR Ocircumflex
ENCODING 212
SWIDTH 1333 0
DWIDTH 16 0
BBX 14 28 1 0
BITMAP
0302
0780
0FC2
1FE0
3CF0
3870
0000
0000
1FE0
7FF8
7FF8
FFFC
F03C
F03C
F03C
F03C
F03C
F03C
F03C
F03C
F03D
F03D
F03C
F03C
FFFD
7FF8
7FFA
1FE1
ENDCHAR
STARTCHAR apple
ENCODING 63743
SWIDTH 1583 0
DWIDTH 19 0
BBX 17 22 1 0
BITMAP
8A28AA
8A28A1
AAAA80
514500
000000
032701
E45480
E47706
E45480
03548C
000013
E21360
951480
E71480
951480
E56310
000004
04BBA0
E6A100
E5B910
E4A100
04B900
ENDCHAR
STARTCHAR Ograve
ENCODING 210
SWIDTH 1333 0
DWIDTH 16 0
BBX 14 28 1 0
BITMAP
3C00
3E00
1F01
0F80
07C0
03C0
0000
0000
1FE0
7FF8
7FF8
FFFE
F03D
F03D
F03C
F03E
F03E
F03C
F03F
F03D
F03E
F03C
F03F
F03C
FFFC
7FF8
7FF8
1FE0
ENDCHAR
STARTCHAR Uacute
ENCODING 218
SWIDTH 1333 0
DWIDTH 16 0
BBX 14 28 1 0
BITMAP
00F1
01F0
03E1
07C0
0F81
0F00
0000
0000
F03C
F03C
F03C
F03C
F03C
F03C
F03C
F03C
F03E
F03D
F03E
F03C
F03D
F03C
F03C
F03C
FFFE
7FF8
7FFB
1FE0
ENDCHAR
STARTCHAR Ucircumflex
ENCODING 219
SWIDTH 1333 0
DWIDTH 16 0
BBX 14 28 1 0
BITMAP
0301
0780
0FC2
1FE0
3CF0
3870
0000
0000
F03E
F03C
F03D
F03C
F03E
F03D
F03E
F03E
F03E
F03E
F03E
F03F
F03D
F03C
F03C
F03C
FFFC
7FF8
7FF8
1FE0
ENDCHAR
STARTCHAR Ugrave
ENCODING 217
SWIDTH 1333 0
DWIDTH 16 0
BBX 14 28 1 0
BITMAP
3C00
3E00
1F02
0F80
07C3
03C2
0000
0000
F03C
F03C
F03C
F03C
F03C
F03C
F03C
F03E
F03E
F03D
F03C
F03F
F03E
F03D
F03C
F03D
FFFD
7FF8
7FF9
1FE0
ENDCHAR
STARTCHAR dotlessi
ENCODING 305
SWIDTH 833 0
DWIDTH 10 0
BBX 8 16 1 0
BITMAP
FC
FC
FC
FC
3C
3C
3C
3C
3C
3C
3C
3C
FF
FF
FF
FF
ENDCHAR
STARTCHAR circumflex
ENCODING 710
SWIDTH 1166 0
DWIDTH 14 0
BBX 10 6 2 22
BITMAP
0C22
1E2C
3F21
7F9C
F3C0
E1D0
ENDCHAR
STARTCHAR tilde
ENCODING 732
SWIDTH 1333 0
DWIDTH 16 0
BBX 12 6 2 22
BITMAP
3C31
7E34
FF32
CFFC
C7E0
C3C0
ENDCHAR
STARTCHAR macron
ENCODING 175
SWIDTH 1333 0
DWIDTH 16 0
BBX 12 4 2 24
BITMAP
FFF4
FFFC
FFF2
FFF4
ENDCHAR
STARTCHAR breve
ENCODING 728
SWIDTH 1333 0
DWIDTH 16 0
BBX 12 6 2 22
BITMAP
C032
C03C
E071
7FE4
7FE0
1F80
ENDCHAR
STARTCHAR dotaccent
ENCODING 729
SWIDTH 1166 0
DWIDTH 14 0
BBX 10 6 2 22
BITMAP
1E21
7FBC
FFD4
FFDC
7F80
1E10
ENDCHAR
STARTCHAR ring
ENCODING 730
SWIDTH 1166 0
DWIDTH 14 0
BBX 10 6 2 22
BITMAP
1E22
7F8C
E1E1
E1FC
7F80
1E10
ENDCHAR
STARTCHAR cedilla
ENCODING 184
SWIDTH 1000 0
DWIDTH 12 0
BBX 8 6 2 -6
BITMAP
0F
0F
FF
FE
FE
F8
ENDCHAR
STARTCHAR hungarumlaut
ENCODING 733
SWIDTH 1333 0
DWIDTH 16 0
BBX 12 8 2 20
BITMAP
0C34
1C7C
3CF2
79E4
F3C0
E385
C30F
820F
ENDCHAR
STARTCHAR ogonek
ENCODING 731
SWIDTH 916 0
DWIDTH 11 0
BBX 8 6 2 -4
BITMAP
38
78
E0
E0
7F
3F
ENDCHAR
STARTCHAR caron
ENCODING 711
SWIDTH 1166 0
DWIDTH 14 0
BBX 10 6 2 22
BITMAP
E1E1
F3EC
7FA1
3F0C
1E00
0C10
ENDCHAR
STARTCHAR FLffff
ENCODING 65535
SWIDTH 1166 0
DWIDTH 14 0
BBX 12 20 1 0
BITMAP
FFF4
801C
8012
8014
8010
8010
8010
8010
8010
8010
8010
8010
8010
8010
8010
8010
8010
8010
8010
FFF0
ENDCHAR
ENDFONT
